<svg width="17" height="16" viewBox="0 0 17 16" fill="none" xmlns="http://www.w3.org/2000/svg">
<path d="M1.3457 7.1235e-06C0.609955 7.1235e-06 0 0.693671 0 1.53185V10.9002C0 11.7384 0.609955 12.4321 1.3457 12.4321L9.58771 12.4319L13.6975 15.881C13.8035 15.9706 13.935 16.0119 14.0662 15.997C14.1975 15.9823 14.3193 15.9123 14.4078 15.8008C14.4964 15.6893 14.5453 15.5444 14.5452 15.394V12.4321H15.6543C16.39 12.4321 17 11.7384 17 10.9002V1.53184C17 0.693664 16.39 0 15.6543 0L1.3457 7.1235e-06ZM1.3457 1.21035H15.6545C15.82 1.21035 15.9367 1.34327 15.9367 1.53185V10.9002C15.9367 11.0888 15.82 11.2217 15.6545 11.2217L14.012 11.2216C13.8717 11.222 13.7371 11.2855 13.6378 11.3986C13.5385 11.5115 13.4824 11.6645 13.4818 11.8245V14.1967L10.0745 11.3375C9.98342 11.262 9.87374 11.2214 9.76122 11.2216H1.34589C1.18036 11.2216 1.06368 11.0887 1.06368 10.9001V1.5317C1.06368 1.34312 1.18036 1.2102 1.34589 1.2102L1.3457 1.21035ZM4.47895 3.60983V3.6097C4.29255 3.62564 4.12701 3.75207 4.0432 3.94254C3.95937 4.13301 3.96945 4.35955 4.06988 4.53934C4.1702 4.71914 4.34604 4.82572 4.53292 4.82004H9.81197C9.95497 4.82369 10.0931 4.76155 10.1953 4.64768C10.2975 4.5338 10.3552 4.37778 10.3552 4.21486C10.3552 4.05209 10.2975 3.89606 10.1953 3.78218C10.0931 3.66831 9.95497 3.60617 9.81197 3.60968H4.53292C4.51501 3.60873 4.49699 3.60873 4.47897 3.60968L4.47895 3.60983ZM4.5329 6.53045C4.34318 6.53072 4.16794 6.64622 4.07308 6.83358C3.97834 7.0208 3.97834 7.25153 4.07308 7.43875C4.16794 7.62611 4.34319 7.7416 4.5329 7.74187H12.4701C12.6599 7.7416 12.8351 7.62611 12.93 7.43875C13.0247 7.25152 13.0247 7.0208 12.93 6.83358C12.8351 6.64622 12.6598 6.53072 12.4701 6.53045H4.5329Z" fill="#525457"/>
</svg>
