<svg width="51" height="50" viewBox="0 0 51 50" fill="none" xmlns="http://www.w3.org/2000/svg">
<g clip-path="url(#clip0_100_14)">
<path d="M38.9757 48.9503C38.2507 48.9503 37.5507 48.7253 36.9007 48.3003L26.4257 41.0753C26.0257 40.8003 25.5257 40.8003 25.1007 41.0753L14.6507 48.3003C13.3507 49.2003 11.7007 49.1753 10.4257 48.2503C9.15074 47.3253 8.62574 45.7753 9.07574 44.2753L12.7007 32.0503C12.8257 31.6003 12.6757 31.1253 12.3007 30.8253L2.45075 23.2753C1.17575 22.3003 0.65075 20.6753 1.15075 19.1503C1.65075 17.6253 3.00075 16.6003 4.62574 16.5753L16.9757 16.2503C17.4757 16.2503 17.9507 15.9003 18.1257 15.4003L22.3257 3.47529C22.8507 2.00029 24.1757 1.05029 25.7507 1.05029H25.7757C27.3257 1.05029 28.6757 2.00029 29.2257 3.47529L33.4757 15.4753C33.6257 15.9253 34.0507 16.2253 34.5257 16.2503L47.2507 16.5753C48.8007 16.6003 50.1257 17.6003 50.6007 19.0753C51.1007 20.5753 50.6007 22.1503 49.3507 23.1253L39.2507 30.8753C38.8757 31.1503 38.7257 31.6503 38.8507 32.0753L42.4757 44.3003C42.9257 45.8003 42.4007 47.3503 41.1257 48.2753C40.4757 48.7253 39.7257 48.9503 38.9757 48.9503ZM25.8007 38.3753C26.5257 38.3753 27.2507 38.6003 27.8507 39.0253L38.3257 46.2503C38.9507 46.6753 39.5007 46.3503 39.6507 46.2253C39.8007 46.1253 40.2757 45.7003 40.0757 44.9753L36.4507 32.7753C36.0007 31.3753 36.5007 29.7753 37.7007 28.8503L47.8007 21.1003C48.4007 20.6503 48.2507 20.0003 48.2007 19.8253C48.1507 19.6503 47.9007 19.0503 47.1507 19.0503L34.4257 18.7253C32.9257 18.6753 31.5757 17.7003 31.0757 16.3003L26.8257 4.30029C26.5757 3.60029 25.9007 3.55029 25.7257 3.55029C25.5257 3.55029 24.9007 3.60029 24.6507 4.30029L20.4757 16.2253C19.9507 17.7003 18.5757 18.7003 17.0257 18.7253L4.67574 19.0503C3.85075 19.0753 3.57575 19.7003 3.52575 19.9003C3.45075 20.1003 3.30075 20.7753 3.95075 21.2753L13.8257 28.8253C15.0257 29.7253 15.5507 31.2753 15.1257 32.7503L11.5007 44.9753C11.2757 45.7003 11.7757 46.1003 11.9257 46.2253C12.0757 46.3503 12.6257 46.6753 13.2507 46.2503L23.7257 39.0253C24.3507 38.6003 25.0757 38.3753 25.8007 38.3753Z" fill="#FFFDFD"/>
</g>
<defs>
<clipPath id="clip0_100_14">
<rect width="50" height="50" fill="white" transform="translate(0.775879)"/>
</clipPath>
</defs>
</svg>
