<svg width="18" height="22" viewBox="0 0 18 22" fill="none" xmlns="http://www.w3.org/2000/svg">
<path d="M17.6483 4.14295L9.17908 0.0413514C9.06534 -0.0137838 8.94127 -0.0137838 8.82753 0.0413514L0.358303 4.14295C0.147499 4.24502 0.00654146 4.51815 0.00654146 4.82457C0.00654146 5.13095 0.147499 5.40407 0.358303 5.50619L1.05507 5.84356V14.6714C0.441056 14.9698 0 15.7734 0 16.7158C0 17.6583 0.441056 18.4619 1.05507 18.7603V21.2771C1.05507 21.6763 1.29127 22 1.58261 22C1.87395 22 2.11015 21.6763 2.11015 21.2771V18.7603C2.72417 18.4619 3.16522 17.6583 3.16522 16.7158C3.16522 15.7734 2.72417 14.9698 2.11015 14.6714V6.35452L3.21791 6.89103V12.686C3.21791 12.9634 3.33372 13.2163 3.51597 13.3369C5.21453 14.4614 7.11205 15.0558 9.00327 15.0558C10.8945 15.0558 12.792 14.4614 14.4906 13.3369C14.6728 13.2163 14.7886 12.9634 14.7886 12.686V6.89103L17.6482 5.50614C17.859 5.40407 18 5.13095 18 4.82452C18 4.51815 17.8591 4.24502 17.6483 4.14295ZM1.58261 17.4387C1.29173 17.4387 1.05507 17.1144 1.05507 16.7158C1.05507 16.3172 1.29173 15.9929 1.58261 15.9929C1.8735 15.9929 2.11015 16.3172 2.11015 16.7158C2.11015 17.1145 1.8735 17.4387 1.58261 17.4387ZM13.7336 12.2251C12.2549 13.1322 10.6267 13.61 9.00331 13.61C7.37986 13.61 5.75167 13.1322 4.27302 12.2251V7.40195L8.82753 9.60769C8.94127 9.66278 9.06534 9.66278 9.17908 9.60769L13.7336 7.40195V12.2251ZM9.00331 8.15933L2.11732 4.82452L9.00331 1.48971L15.8893 4.82452L9.00331 8.15933Z" fill="#525457"/>
</svg>
