<svg width="50" height="50" viewBox="0 0 50 50" fill="none" xmlns="http://www.w3.org/2000/svg">
<path d="M44.2526 22.565C44.2517 22.5641 44.2508 22.5631 44.2499 22.5622L27.8098 6.12449C27.1091 5.42351 26.1774 5.03735 25.1864 5.03735C24.1954 5.03735 23.2638 5.4232 22.5627 6.12418L6.13129 22.5536C6.12575 22.5591 6.12022 22.565 6.11468 22.5705C4.67568 24.0177 4.67814 26.3657 6.12175 27.8091C6.7813 28.4689 7.65239 28.8511 8.58375 28.8911C8.62157 28.8947 8.65969 28.8966 8.69813 28.8966H9.35337V40.9938C9.35337 43.3876 11.3013 45.3352 13.6959 45.3352H20.1278C20.7796 45.3352 21.3085 44.8067 21.3085 44.1546V34.6705C21.3085 33.5781 22.1971 32.6896 23.2896 32.6896H27.0833C28.1757 32.6896 29.0644 33.5781 29.0644 34.6705V44.1546C29.0644 44.8067 29.5929 45.3352 30.2451 45.3352H36.6769C39.0716 45.3352 41.0195 43.3876 41.0195 40.9938V28.8966H41.6271C42.6178 28.8966 43.5494 28.5107 44.2508 27.8098C45.6959 26.3638 45.6966 24.0118 44.2526 22.565Z" fill="#FFFDFD"/>
</svg>
