<svg width="70" height="60" viewBox="0 0 70 60" fill="none" xmlns="http://www.w3.org/2000/svg">
<g clip-path="url(#clip0_649_180)">
<path d="M68.5397 0.300544C68.1835 0.102458 67.7681 -0.00163725 67.3444 0.00102643C66.9206 0.00369012 66.507 0.112997 66.1542 0.315539L0.976891 37.8042C0.646865 37.9931 0.383368 38.2567 0.21517 38.5661C0.0469722 38.8755 -0.0194591 39.2189 0.0231299 39.5586C0.0632592 39.8983 0.210695 40.222 0.449366 40.4943C0.688037 40.7667 1.00878 40.9773 1.37665 41.1032L18.3749 46.972L26.3678 59.0396C26.5557 59.3235 26.8264 59.56 27.153 59.7257C27.4796 59.8914 27.8508 59.9806 28.2297 59.9843H28.2536C29.0162 59.9843 29.7244 59.6357 30.1155 59.0733L34.6279 52.5822L55.6911 59.8493C55.9922 59.9539 56.3169 59.9985 56.6408 59.9797C56.9647 59.9608 57.2795 59.8791 57.5617 59.7406C58.1352 59.4632 58.5285 58.9759 58.6393 58.4154L69.5022 2.18247C69.5713 1.82202 69.517 1.45199 69.3461 1.11773C69.1751 0.783461 68.8949 0.499471 68.5397 0.300544ZM6.8233 38.9457L57.1728 9.98385L20.5648 43.793C20.3715 43.6936 20.1999 43.5624 19.9869 43.4893L6.8233 38.9457ZM22.1465 45.1107L22.1313 45.0919L63.2864 7.08786L28.2015 54.2523L22.1465 45.1107ZM54.796 55.5007L36.24 49.0976C35.8056 48.9612 35.3486 48.8859 34.8865 48.8745L63.4602 10.6586L54.796 55.5007Z" fill="#FFFDFD"/>
</g>
<defs>
<clipPath id="clip0_649_180">
<rect width="69.5436" height="60" fill="white"/>
</clipPath>
</defs>
</svg>
