<svg width="17" height="20" viewBox="0 0 17 20" fill="none" xmlns="http://www.w3.org/2000/svg">
<path d="M6.02668 1.18865V5.5334H10.9734V1.18865H6.02668ZM9.17668 6.72189V9.08486H13.1734C13.5469 9.08486 13.85 9.35106 13.85 9.67915L13.8471 13.2782H16.3234C16.6969 13.2782 17 13.5444 17 13.8725V19.4057C17 19.7338 16.6969 20 16.3234 20H10.0235C9.64991 20 9.34684 19.7338 9.34684 19.4057V13.8725C9.34684 13.5443 9.64993 13.2782 10.0235 13.2782H12.4992L12.4995 10.2735H4.53363L4.50653 13.2782H6.97652C7.3501 13.2782 7.65316 13.5444 7.65316 13.8725V19.4057C7.65316 19.7338 7.35007 20 6.97652 20H0.67664C0.30306 20 0 19.7338 0 19.4057V13.8725C0 13.5443 0.303085 13.2782 0.67664 13.2782H3.1589L3.19127 9.67452C3.19415 9.34913 3.49555 9.08712 3.86527 9.08712L7.82358 9.0848V6.72184H5.35022C4.97664 6.72184 4.67358 6.45564 4.67358 6.12754V0.594299C4.67358 0.266181 4.97667 0 5.35022 0H11.6501C12.0237 0 12.3267 0.266203 12.3267 0.594299V6.12754C12.3267 6.45566 12.0237 6.72184 11.6501 6.72184L9.17668 6.72189ZM10.7002 14.4672V18.8118H15.6467V14.4672H10.7002ZM1.35324 14.467V18.8118H6.29996V14.467H1.35324Z" fill="#525457"/>
</svg>
