<svg width="51" height="56" viewBox="0 0 51 56" fill="none" xmlns="http://www.w3.org/2000/svg">
<path d="M43.8005 41.1942H25.788L17.335 47.561C16.6577 48.0607 16.4245 48.0684 15.8334 48.0684C15.0891 48.0684 14.4966 47.4262 14.4347 46.6171L14.4114 41.1942H7.77507C6.72791 41.1942 5.87903 40.2509 5.87903 39.0875V9.59315C5.87903 8.42985 6.72791 7.48655 7.77507 7.48655H43.8005C44.8476 7.48655 45.6966 8.42985 45.6966 9.59315V39.0875C45.6965 40.2509 44.8477 41.1942 43.8005 41.1942ZM42.8524 10.6465H8.72312V38.0342H15.3594C15.3594 38.0342 15.6653 38.0343 15.8334 38.0343C16.6188 38.0343 17.2554 38.7418 17.2554 39.6144C17.2554 39.8012 17.2202 43.8672 17.2202 43.8672L24.9527 38.0342H42.8524V10.6465ZM15.3594 28.554C15.3594 27.9722 15.7838 27.5005 16.3074 27.5005H35.2682C35.7918 27.5005 36.2162 27.9721 36.2162 28.554C36.2162 29.1359 35.7918 29.6074 35.2682 29.6074H16.3074C15.7838 29.6074 15.3594 29.1357 15.3594 28.554ZM35.2681 21.1803H16.3074C15.7838 21.1803 15.3594 20.7088 15.3594 20.127C15.3594 19.5452 15.7838 19.0736 16.3074 19.0736H35.2682C35.7918 19.0736 36.2162 19.5451 36.2162 20.127C36.2162 20.7087 35.7917 21.1803 35.2681 21.1803ZM15.8334 48.3396C14.9715 48.3396 14.2655 47.6089 14.1914 46.6401L14.1906 46.6184L14.1684 41.4655H7.77507C6.595 41.4655 5.63489 40.3988 5.63489 39.0876V9.59321C5.63489 8.28206 6.595 7.21533 7.77507 7.21533H43.8005C44.9806 7.21533 45.9407 8.28206 45.9407 9.59321V39.0876C45.9407 40.3988 44.9806 41.4655 43.8005 41.4655H25.8629L17.472 47.7855C16.7498 48.3184 16.4648 48.3396 15.8334 48.3396ZM14.6787 46.6044C14.7354 47.2852 15.2302 47.7971 15.8334 47.7971C16.3871 47.7971 16.5737 47.7971 17.1999 47.335L25.713 40.9229H43.8005C44.7113 40.9229 45.4524 40.0996 45.4524 39.0875V9.59315C45.4524 8.58116 44.7113 7.75781 43.8004 7.75781H7.77503C6.86419 7.75781 6.12312 8.58116 6.12312 9.59315V39.0875C6.12312 40.0996 6.86419 40.9229 7.77503 40.9229H14.6543L14.6787 46.6044ZM16.9716 44.3826L16.9761 43.8646C16.9764 43.824 17.0113 39.7977 17.0113 39.6143C17.0113 38.8926 16.4829 38.3056 15.8334 38.3056L8.47898 38.3055V10.3752H43.0966V38.3055H25.0277L16.9716 44.3826ZM8.96726 37.763L15.8334 37.7631C16.7521 37.7631 17.4996 38.5936 17.4996 39.6144C17.4996 39.7618 17.4783 42.2462 17.4689 43.3518L24.8777 37.763H42.6083V10.9178H8.96726V37.763ZM35.2682 29.8786H16.3074C15.6501 29.8786 15.1153 29.2844 15.1153 28.554C15.1153 27.8236 15.6501 27.2293 16.3074 27.2293H35.2682C35.9256 27.2293 36.4604 27.8236 36.4604 28.554C36.4604 29.2844 35.9256 29.8786 35.2682 29.8786ZM16.3074 27.7718C15.9193 27.7718 15.6035 28.1227 15.6035 28.554C15.6035 28.9853 15.9193 29.3361 16.3074 29.3361H35.2682C35.6563 29.3361 35.9721 28.9852 35.9721 28.554C35.9721 28.1227 35.6563 27.7718 35.2682 27.7718H16.3074ZM35.2681 21.4516H16.3074C15.6501 21.4516 15.1153 20.8574 15.1153 20.127C15.1153 19.3965 15.6501 18.8023 16.3074 18.8023H35.2682C35.9256 18.8023 36.4604 19.3965 36.4604 20.127C36.4603 20.8574 35.9255 21.4516 35.2681 21.4516ZM16.3074 19.3448C15.9193 19.3448 15.6035 19.6957 15.6035 20.127C15.6035 20.5582 15.9193 20.9091 16.3074 20.9091H35.2681C35.6562 20.9091 35.972 20.5582 35.9721 20.1269C35.9721 19.6956 35.6563 19.3448 35.2682 19.3448H16.3074V19.3448Z" fill="#FFFDFD"/>
</svg>
