<svg width="51" height="50" viewBox="0 0 51 50" fill="none" xmlns="http://www.w3.org/2000/svg">
<path d="M40.0734 35.6218C39.507 34.637 38.9489 33.6468 38.3944 32.6548C38.3534 32.5809 38.3605 32.4745 38.3605 32.3825C38.3594 28.6147 38.358 24.847 38.3605 21.0793C38.3605 20.0909 38.2213 19.1201 37.9126 18.1875C37.6512 17.3999 37.3509 16.6187 36.9853 15.8747C36.512 14.913 35.9152 14.0196 35.1792 13.2297C34.7604 12.7794 34.3658 12.2952 33.8924 11.9085C33.1818 11.3287 32.435 10.7881 31.6638 10.293C31.5961 10.2495 31.5275 10.2071 31.4588 10.1653L31.5572 10.2438C31.5572 9.08313 31.2192 7.20925 30.2841 5.65146C29.1546 3.77003 27.4204 2.73389 25.4006 2.73389C24.1395 2.73389 23.0169 3.06511 22.0642 3.71847C21.2627 4.26815 20.5965 5.03737 20.084 6.00462C19.2584 7.56306 19.035 9.24172 18.9775 10.1814C18.526 10.4351 18.0944 10.7216 17.6839 11.0398C17.0823 11.5065 16.4782 11.9834 15.9467 12.5257C14.7434 13.7532 13.7811 15.1526 13.0996 16.7407C12.7122 17.6426 12.4386 18.5735 12.2643 19.534C12.1892 19.9492 12.1578 20.3772 12.1566 20.7996C12.1482 24.6181 12.1506 28.4373 12.1542 32.2559C12.1554 32.4853 12.0936 32.6741 11.9738 32.8738C11.5768 33.5379 11.2064 34.2194 10.8239 34.8923C10.2791 35.8511 9.72227 36.8025 9.18843 37.7673C8.95119 38.1965 8.65314 38.6132 8.54316 39.0923C8.47021 39.4103 8.54316 39.7447 8.54316 40.0711C8.7078 40.4911 8.8652 40.9081 9.21146 41.2307C9.65206 41.6423 10.1726 41.8626 10.7621 41.8651C13.3937 41.877 16.0254 41.8717 18.6571 41.8668C18.869 41.8661 18.9743 41.8813 19.0228 42.1476C19.2079 43.1754 19.6619 44.0948 20.3167 44.9033C21.0189 45.7713 21.8917 46.4317 22.9496 46.8076C23.4205 46.9745 23.9205 47.0581 24.407 47.1815C24.4264 47.1868 24.4408 47.2129 24.4566 47.2299C25.006 47.2299 25.5555 47.2299 26.1051 47.2299C26.4586 47.1428 26.8157 47.0684 27.1643 46.9666C27.9064 46.7511 28.5818 46.4019 29.1884 45.9195C29.6664 45.5388 30.0878 45.1072 30.4521 44.6133C31.0549 43.7974 31.4012 42.8817 31.5948 41.8697C31.6855 41.8697 31.7861 41.8697 31.8877 41.8697C34.4698 41.8697 37.0519 41.8624 39.6327 41.874C40.6847 41.8788 41.6022 41.2928 41.9279 40.3021C41.9315 40.2906 41.9545 40.2851 41.9679 40.2773C41.9679 39.8136 42.0884 39.4191 41.9679 38.9714C41.6408 37.7565 40.7006 36.7131 40.0734 35.6218ZM22.2748 7.16528C22.9708 5.85162 23.9933 5.21306 25.4007 5.21306C26.5478 5.21306 27.4757 5.78986 28.1587 6.92749C28.5259 7.53918 28.7744 8.2447 28.9189 8.89626L27.1551 8.93693C25.3803 8.84994 22.9622 8.84839 21.7135 9.0626L21.6188 9.06479C21.7504 8.42428 21.9611 7.75748 22.2748 7.16528ZM25.8728 45.2237C23.3746 45.5481 21.4147 43.762 21.0201 41.8814C23.8515 41.8814 26.6803 41.8814 29.5093 41.8814C29.272 43.4031 27.7661 44.9779 25.8728 45.2237ZM40.0008 39.6897C39.9718 39.7708 39.8391 39.8492 39.7321 39.864C39.669 39.8728 39.5965 39.8682 39.5275 39.8682C34.7811 39.8682 30.0358 39.8682 25.2893 39.8682C20.5431 39.8682 15.7967 39.8682 11.0514 39.8682C10.9825 39.8682 10.9135 39.8719 10.8445 39.8676C10.5539 39.8513 10.4329 39.6552 10.5708 39.4077C10.9424 38.7376 11.3201 38.0713 11.7002 37.4054C12.0961 36.7107 12.4967 36.0195 12.895 35.3258C13.2424 34.7193 13.5996 34.1183 13.9288 33.5015C14.028 33.3163 14.0946 33.0887 14.0946 32.8799C14.1043 29.0093 14.0898 25.1387 14.1091 21.2681C14.1151 19.9844 14.4069 18.749 14.9201 17.5645C15.3668 16.535 15.9503 15.5914 16.662 14.7331C17.237 14.0389 17.8834 13.4112 18.6061 12.858C19.2864 12.3375 20.0091 11.8999 20.7766 11.521C21.6434 11.0913 22.5719 10.8589 23.5099 10.667C24.045 10.558 24.5956 10.469 25.1402 10.4654C26.0881 10.4605 27.0092 10.6737 27.9317 10.8928C29.354 11.2299 30.613 11.8884 31.7642 12.7515C33.0715 13.7314 34.138 14.942 34.9636 16.3589C35.5737 17.4071 36.0071 18.5245 36.2419 19.7139C36.3121 20.0691 36.3521 20.4366 36.3533 20.7985C36.3606 24.7207 36.3606 28.6425 36.3533 32.5654C36.3522 32.9969 36.4816 33.3716 36.6922 33.7353C37.168 34.5585 37.6389 35.3852 38.1098 36.212C38.6799 37.2137 39.2476 38.2172 39.8202 39.219C39.848 39.2698 39.9115 39.303 39.9363 39.3533C39.988 39.457 40.0336 39.5959 40.0008 39.6897Z" fill="#FFFDFD"/>
</svg>
