<svg width="19" height="19" viewBox="0 0 19 19" fill="none" xmlns="http://www.w3.org/2000/svg">
<path fill-rule="evenodd" clip-rule="evenodd" d="M13.2728 1.13092C13.5656 0.837952 14.0406 0.837952 14.3334 1.13092L17.8689 4.66629C18.1619 4.95926 18.1619 5.4342 17.8689 5.727L7.26222 16.3337C7.18002 16.4161 7.07958 16.478 6.96909 16.5149L1.66595 18.2827C1.39642 18.3724 1.09925 18.3023 0.89855 18.1014C0.697657 17.9005 0.627513 17.6035 0.717243 17.334L2.4851 12.0304C2.52193 11.9199 2.58387 11.8197 2.66624 11.7373L13.2728 1.13092ZM13.8032 2.72182L12.3889 4.1361L14.8637 6.61093L16.278 5.19665L13.8032 2.72182ZM13.8032 7.67182L11.3282 5.19682L4.25721 12.2678L6.73204 14.7426L13.8032 7.67182ZM5.34364 15.4757L3.5244 13.6564L2.61467 16.3854L5.34364 15.4757Z" fill="#595959"/>
</svg>
