<svg width="28" height="23" viewBox="0 0 28 23" fill="none" xmlns="http://www.w3.org/2000/svg">
<path d="M18.9 1.15002H9.1C7.94204 1.15002 7 1.92384 7 2.87502V15.525C7 16.4762 7.94204 17.25 9.1 17.25H18.9C20.058 17.25 21 16.4762 21 15.525V2.87502C21 1.92384 20.058 1.15002 18.9 1.15002ZM19.6 15.525C19.6 15.842 19.2859 16.1 18.9 16.1H9.1C8.71406 16.1 8.4 15.842 8.4 15.525V2.87502C8.4 2.55801 8.71406 2.30002 9.1 2.30002H18.9C19.2859 2.30002 19.6 2.55801 19.6 2.87502V15.525Z" fill="#525457"/>
<path d="M15.78 6.65493C15.9795 6.39104 16.1 6.08289 16.1 5.75021C16.1 4.79903 15.158 4.02521 14 4.02521C12.842 4.02521 11.9 4.79903 11.9 5.75021C11.9 6.08289 12.0205 6.39105 12.22 6.65493C10.7926 7.20657 9.79999 8.39583 9.79999 9.7752C9.79999 10.0927 10.1134 10.3502 10.5 10.3502H17.5C17.8866 10.3502 18.2 10.0927 18.2 9.7752C18.2 8.39586 17.2074 7.20657 15.78 6.65493ZM13.3 5.75021C13.3 5.43319 13.6141 5.17521 14 5.17521C14.3859 5.17521 14.7 5.43319 14.7 5.75021C14.7 6.06723 14.3859 6.32521 14 6.32521C13.6141 6.32521 13.3 6.06723 13.3 5.75021ZM11.2886 9.2002C11.6003 8.2095 12.6978 7.47521 14 7.47521C15.3022 7.47521 16.3997 8.2095 16.7114 9.2002H11.2886Z" fill="#525457"/>
<path d="M10.15 12.65H17.85C18.0433 12.65 18.2 12.5213 18.2 12.3625V11.7875C18.2 11.6287 18.0433 11.5 17.85 11.5H10.15C9.95671 11.5 9.79999 11.6287 9.79999 11.7875V12.3625C9.79999 12.5213 9.95671 12.65 10.15 12.65Z" fill="#525457"/>
<path d="M10.15 14.95H17.85C18.0433 14.95 18.2 14.8213 18.2 14.6625V14.0875C18.2 13.9287 18.0433 13.8 17.85 13.8H10.15C9.95671 13.8 9.79999 13.9287 9.79999 14.0875V14.6625C9.79999 14.8213 9.95671 14.95 10.15 14.95Z" fill="#525457"/>
</svg>
